<?xml version="1.0" encoding="UTF-8" standalone="no"?><!DOCTYPE svg PUBLIC "-//W3C//DTD SVG 1.1//EN" "http://www.w3.org/Graphics/SVG/1.1/DTD/svg11.dtd"><svg width="100%" height="100%" viewBox="0 0 1412 1412" version="1.1" xmlns="http://www.w3.org/2000/svg" xmlns:xlink="http://www.w3.org/1999/xlink" xml:space="preserve" xmlns:serif="http://www.serif.com/" style="fill-rule:evenodd;clip-rule:evenodd;stroke-linejoin:round;stroke-miterlimit:2;"><rect id="Artboard8" x="0" y="0" width="1411.76" height="1411.76" style="fill:#1a32e6;"/><g><path d="M718.836,258.584l0.596,341.78l-12.556,-9.74l-23.182,18.081c0,0 0.226,-323.711 0.231,-331.741c0,-0.093 0.052,-0.179 0.135,-0.222c2.354,-1.229 34.777,-18.158 34.777,-18.158Z" style="fill:#fff;"/><path d="M745.144,621.397l0.244,-351.748l60.739,20.897l0.185,128.313l-26.139,8.655l0.138,222.217l-35.168,-28.333Z" style="fill:#fff;"/><path d="M838.258,696.415l-1.76,-349.017l48.576,44.815l-0.498,341.518l-46.318,-37.316Z" style="fill:#fff;"/><path d="M922.134,763.99l2.212,-157.365l-15.003,-5.283l-0.627,-133.086l25.786,4.622l0.346,72.636l25.383,11.078l-2.841,235.802l-35.256,-28.404Z" style="fill:#fff;"/><path d="M624.348,656.976l2.603,-165.387l-29.654,-32.445l0.154,-102.049l62.024,-31.963l-0.01,303.551l-35.117,28.292Z" style="fill:#fff;"/><path d="M531.681,731.634l3.362,-297.989l42.381,-26.461l-1.793,289.041l-43.95,35.409Z" style="fill:#fff;"/><path d="M451.53,796.208l1.887,-193.937l22.133,-10.83l0.137,-80.261l39.606,-19.591l-1.896,125.964l-22.327,8.266l-3.052,140.993l-36.488,29.396Z" style="fill:#fff;"/><path d="M960.231,837.236l0,25.44l-253.404,-215.349l-255.297,216.957l0,-25.44l255.297,-216.957l253.404,215.349Z" style="fill:#fff;"/><rect x="657.273" y="751.943" width="41.681" height="40.451" style="fill:#fff;"/><rect x="714.15" y="751.943" width="41.681" height="40.451" style="fill:#fff;"/><rect x="714.15" y="806.649" width="41.681" height="40.451" style="fill:#fff;"/><rect x="657.707" y="806.649" width="41.681" height="40.451" style="fill:#fff;"/></g><g transform="matrix(170.007601,0,0,170.007601,1256.714526,1097.123735)"></g><text x="155.046px" y="1097.124px" style="font-family:'Bebas';font-size:170.008px;fill:#fff;">S<tspan x="243.672px 345.339px 423.218px " y="1097.124px 1097.124px 1097.124px ">ALE</tspan>S   EDA<tspan x="911.87px 1001.824px 1077.168px 1178.835px " y="1097.124px 1097.124px 1097.124px 1097.124px ">PPAL</tspan></text></svg>